<?xml version="1.0" encoding="UTF-8" standalone="no"?>
<!-- Created with Inkscape (http://www.inkscape.org/) -->

<svg
   xmlns:osb="http://www.openswatchbook.org/uri/2009/osb"
   xmlns:dc="http://purl.org/dc/elements/1.1/"
   xmlns:cc="http://creativecommons.org/ns#"
   xmlns:rdf="http://www.w3.org/1999/02/22-rdf-syntax-ns#"
   xmlns:svg="http://www.w3.org/2000/svg"
   xmlns="http://www.w3.org/2000/svg"
   xmlns:sodipodi="http://sodipodi.sourceforge.net/DTD/sodipodi-0.dtd"
   xmlns:inkscape="http://www.inkscape.org/namespaces/inkscape"
   width="1260.9506"
   height="593.47998"
   viewBox="0 0 333.6265 157.02492"
   version="1.1"
   id="svg3790"
   inkscape:version="0.92.1 r15371"
   sodipodi:docname="logo.svg">
  <defs
     id="defs3784">
    <linearGradient
       id="linearGradient4585"
       osb:paint="solid">
      <stop
         style="stop-color:#ffffff;stop-opacity:1;"
         offset="0"
         id="stop4583" />
    </linearGradient>
  </defs>
  <sodipodi:namedview
     id="base"
     pagecolor="#ffffff"
     bordercolor="#666666"
     borderopacity="1.0"
     inkscape:pageopacity="0.0"
     inkscape:pageshadow="2"
     inkscape:zoom="0.32"
     inkscape:cx="0.79345019"
     inkscape:cy="303.51137"
     inkscape:document-units="px"
     inkscape:current-layer="layer1"
     showgrid="false"
     units="px"
     showborder="false"
     inkscape:window-width="1366"
     inkscape:window-height="708"
     inkscape:window-x="0"
     inkscape:window-y="27"
     inkscape:window-maximized="1"
     inkscape:snap-global="false"
     inkscape:snap-bbox="true"
     inkscape:bbox-nodes="true"
     inkscape:snap-bbox-edge-midpoints="true"
     inkscape:bbox-paths="true"
     inkscape:snap-bbox-midpoints="true"
     inkscape:snap-intersection-paths="true"
     showguides="true"
     inkscape:guide-bbox="true"
     fit-margin-top="0"
     fit-margin-left="0"
     fit-margin-right="0"
     fit-margin-bottom="0" />
  <metadata
     id="metadata3787">
    <rdf:RDF>
      <cc:Work
         rdf:about="">
        <dc:format>image/svg+xml</dc:format>
        <dc:type
           rdf:resource="http://purl.org/dc/dcmitype/StillImage" />
        <dc:title />
      </cc:Work>
    </rdf:RDF>
  </metadata>
  <g
     inkscape:label="Layer 1"
     inkscape:groupmode="layer"
     id="layer1"
     transform="translate(-140.76456,-181.94019)">
    <g
       id="g4743"
       style="fill:#232323;fill-opacity:1"
       transform="matrix(0.10986926,0,0,0.10986926,273.78434,231.83855)"
       inkscape:export-xdpi="96"
       inkscape:export-ydpi="96">
      <path
         inkscape:connector-curvature="0"
         d="M 1029.9604,135.2545 C 163.09048,268.30816 -445.00799,-44.02349 -1107.7886,214.11576 l 27.4822,38.89722 C -367.54315,-3.17348 440.14875,375.06848 1029.9604,135.2545 Z m 681.1971,-380.16836 C 1681.8272,205.34204 1051.9149,687.90696 642.34421,319.93979 619.36904,387.2253 625.15044,480.87207 687.7823,537.8709 334.62522,609.34258 146.65824,496.20502 -24.39257,268.78122 c -79.98047,124.33738 7.86355,247.79577 84.4776,279.92058 -215.64784,6.94727 -218.88535,-329.29845 -480.17535,-267.31167 99.4406,57.39212 122.20734,104.33628 158.19949,167.6249 -93.57806,6.06209 -313.41869,-64.22318 -287.12552,-233.07641 -77.75851,8.54528 -97.33244,87.76297 -79.44298,126.50664 -40.04541,-22.7823 -46.77462,-95.42842 -43.67507,-123.45658 -25.86917,10.61526 -61.77719,48.20351 -49.69643,108.27097 -24.80753,-43.60457 -18.85848,-82.40361 -14.63364,-106.06658 -20.74271,4.55367 -34.23127,13.50784 -53.33916,43.44429 -24.04069,-18.73132 -36.50836,-24.27289 -50.19109,-31.70335 -12.93,2.05045 -28.95294,4.82389 -40.61523,7.14121 18.74917,8.53674 72.50227,37.86935 119.08583,97.20231 -15.62789,-32.26166 -8.99699,-49.01264 -1.38297,-61.55029 0.79943,43.55411 13.97482,82.55443 88.34515,99.9077 -24.61918,-39.55604 -27.95339,-62.80494 -21.56672,-99.07619 -7.37936,65.40012 90.82017,135.16686 146.24496,148.40136 -54.5145,-41.37404 -55.84855,-125.42289 -33.69067,-149.88362 12.19951,157.84684 220.70467,223.5562 389.53711,206.99447 -61.50463,-66.38169 -61.57293,-125.64868 -136.56057,-173.05777 115.41283,14.41814 221.98004,375.07977 476.35237,251.23758 C 7.56265,480.3157 -11.01228,403.81368 -9.63901,353.37383 210.41021,641.74175 486.21707,634.66728 817.53112,561.01928 722.21033,531.87179 677.36444,465.31468 680.73371,410.58377 1108.2926,731.1955 1822.7539,199.93151 1711.1707,-244.72823 Z"
         style="fill:#232323;fill-opacity:1;stroke:none;stroke-width:14.28562641;stroke-linecap:round;stroke-linejoin:miter;stroke-miterlimit:6;stroke-dasharray:none;stroke-opacity:1"
         id="path4731"
         sodipodi:nodetypes="ccccccccccccccccccccccccccccccccc" />
      <path
         inkscape:connector-curvature="0"
         d="m 1208.578,-166.45258 v 86.94912 c 0,19.91262 -0.3713,40.11694 -1.04,60.57597 -32.6013,12.14169 -68.5505,18.20457 -107.8352,18.20457 -16.0955,0 -29.7947,-0.63644 -41.1167,-2.01566 -11.3217,-1.37921 -21.4785,-3.71309 -30.4811,-6.96464 -8.8662,-3.28867 -15.8955,-7.78154 -21.079,-13.5156 -5.1824,-5.86122 -9.13892,-13.03283 -11.86902,-21.48794 -2.5939,-8.593 -3.8935,-18.94192 -3.8935,-31.0836 0,-17.59983 2.3233,-31.84733 6.9626,-42.76374 4.77392,-10.9111 11.60972,-19.15936 20.47592,-24.75022 8.8662,-5.59073 20.7114,-9.82902 35.5795,-12.69327 29.4637,-5.59086 80.9107,-9.07577 154.2972,-10.43908 z m -98.022,-175.32519 c -23.0523,0 -44.5276,1.06074 -64.4433,3.23564 -19.9153,2.06869 -42.9124,5.14522 -68.96642,9.21379 l 3.4797,32.12312 c 50.06052,-7.22982 90.02312,-10.82611 119.89622,-10.82611 14.8681,0 27.7646,0.63644 38.6768,2.01566 11.049,1.37909 20.5969,3.60689 28.6446,6.77358 8.1847,3.02349 14.7986,6.67824 19.8458,11.04369 5.1823,4.34967 9.3351,9.95631 12.4722,16.77776 3.1401,6.82144 5.324,14.2369 6.5508,22.28362 1.225,7.91413 1.8353,17.40359 1.8353,28.45259 v 22.50651 c -79.1152,2.70513 -134.6311,6.48718 -166.5496,11.26644 -59.33672,8.86362 -89.00412,46.30712 -89.00412,112.33049 0,20.05051 2.8803,36.96086 8.6073,50.73634 5.7288,13.77535 14.7229,24.81904 26.9998,33.14169 12.27652,8.18462 27.13832,14.10431 44.59802,17.79075 17.4599,3.55399 38.6859,5.31507 63.6483,5.31507 58.245,0 107.617,-9.41003 148.1297,-28.23513 0.9546,-22.36862 1.4268,-42.48808 1.4268,-60.35839 v -176.77336 c 0,-14.59755 -1.5488,-27.63038 -4.689,-39.08789 -3.0023,-11.59528 -7.5673,-21.2811 -13.7055,-29.05721 -6.0018,-7.90883 -12.8927,-14.52343 -20.6679,-19.84367 -7.7751,-5.45296 -16.9904,-9.6646 -27.6304,-12.66688 -10.6395,-3.02349 -21.488,-5.14522 -32.537,-6.35459 -10.9121,-1.21985 -23.1169,-1.85655 -36.6214,-1.85655 z m -1168.588934,4.88004 v 237.95911 c 0,8.86363 0.212147,16.77776 0.631267,23.7371 0.424295,6.95934 1.156462,14.40131 2.249021,22.31014 1.230196,7.77624 2.859074,14.6665 4.906555,20.67105 2.047481,5.86665 4.757923,11.87119 8.168709,18.00833 3.410662,6.13714 7.450512,11.45221 12.088132,15.95025 4.77383,4.50878 10.55834,8.79467 17.37862,12.88433 6.82041,3.97828 14.45862,7.22453 22.91593,9.81311 8.59313,2.43996 18.50054,4.34954 29.68589,5.72863 11.18534,1.48529 23.44526,2.22793 36.81339,2.22793 30.28209,0 59.56167,-2.70526 87.79732,-8.16883 28.37251,-5.45284 53.52957,-12.67736 75.4907,-21.67888 0.95467,-18.00834 1.42682,-38.1278 1.42682,-60.36369 v -279.0998 h -37.85459 v 255.14526 c 0,15.82296 -0.4243,36.02728 -1.23537,60.57583 -12.54968,5.32568 -30.06788,9.94571 -52.57478,13.90277 C 127.484,-3.31681 108.05621,-1.34888 91.55115,-1.34888 79.2748,-1.34888 68.2051,-1.87925 58.3841,-2.781 48.69932,-3.89478 40.12003,-5.53931 32.61764,-7.71408 25.11513,-10.04809 18.55628,-12.70019 12.96387,-15.69185 7.5078,-18.82142 2.80278,-22.70423 -1.1526,-27.3403 c -3.81917,-4.77383 -6.94718,-9.7016 -9.40201,-14.75136 -2.45599,-5.19838 -4.44513,-11.37795 -5.94841,-18.60778 -1.36317,-7.22983 -2.30736,-14.45435 -2.84833,-21.68418 -0.4243,-7.36785 -0.60411,-15.97146 -0.60411,-25.78987 v -228.75076 z m -143.606186,0 V 27.50691 h 38.0467 v -364.40464 z m 705.94473,-4.88004 c -23.32535,0 -48.81395,2.91741 -76.50423,8.79998 -27.55406,5.72875 -51.76965,12.76234 -72.63965,21.07956 -0.95466,18.00833 -1.42682,38.1278 -1.42682,60.35838 V 27.53343 h 38.04656 v -255.14008 c 0,-19.91779 0.31822,-40.09029 1.01288,-60.55462 12.68589,-5.31494 28.84777,-9.90845 48.49042,-13.73292 19.77834,-3.97828 36.07864,-5.91969 48.90088,-5.91969 20.18789,0 36.70938,1.96262 49.53227,5.91969 12.95794,3.81917 23.11475,10.32226 30.48092,19.46167 7.3641,9.00682 12.40105,19.82776 15.13077,32.51043 2.86437,12.5502 4.3018,28.71259 4.3018,48.49249 V 27.53343 h 38.04669 v -237.95381 c 0,-29.59844 -3.26758,-52.93233 -9.81362,-69.98057 16.91448,-8.86892 35.20715,-15.62129 54.8498,-20.25735 19.77886,-4.77397 37.71191,-7.15558 53.80794,-7.15558 13.50383,0 25.2934,0.90163 35.38761,2.65223 10.09369,1.64427 18.83895,4.45561 26.20512,8.39146 7.36565,3.81917 13.42699,8.46572 18.20082,13.91868 4.91186,5.45814 8.7851,12.34853 11.64948,20.67105 3.00227,8.18462 5.04975,17.09597 6.14037,26.78179 1.22502,9.5478 1.83533,20.8938 1.83533,33.99028 V 27.52813 h 38.07413 v -237.95912 c 0,-11.049 -0.4243,-21.01061 -1.2354,-29.87423 -0.6843,-8.86892 -2.1747,-17.91817 -4.49272,-27.19548 -2.1802,-9.4099 -5.19839,-17.59996 -9.01859,-24.55917 -3.68115,-7.09206 -8.66415,-13.84442 -14.93867,-20.25748 -6.27452,-6.54553 -13.69152,-11.86047 -22.28518,-15.95012 -8.4573,-4.2436 -18.75253,-7.52166 -30.89215,-9.84494 -12.00379,-2.44008 -25.50917,-3.66006 -40.51368,-3.66006 -52.24323,0 -99.09663,10.63001 -140.56407,31.91111 -19.50578,-21.2811 -51.44224,-31.91111 -95.77406,-31.91111 z m -974.68294,-77.95291 c 51.1521,0 87.43344,8.24827 108.84933,24.7501 21.41576,16.50726 32.12584,43.93081 32.12584,82.26015 0,17.46192 -2.13234,32.60058 -6.35938,45.42127 -4.08965,12.82068 -9.95954,23.39222 -17.59775,31.71487 -7.63886,8.32251 -17.51872,15.01654 -29.65885,20.06629 -12.00379,4.93308 -25.17724,8.36508 -39.49951,10.41256 -14.3228,1.90958 -31.0937,2.86438 -50.3268,2.86438 -36.28392,0 -70.60057,-1.64441 -102.92847,-4.93308 v -205.44339 c 36.14758,-4.77396 71.29432,-7.15558 105.39559,-7.15558 z m -2.46712,-34.40409 c -48.69675,0 -96.29757,3.55385 -142.81153,10.63518 v 471.0065 h 39.88306 v -199.27973 c 51.42465,2.59906 87.59565,3.87221 108.46578,3.87221 15.68662,0 29.93891,-0.53037 42.76115,-1.6444 12.95845,-1.21985 25.63387,-3.28868 38.04656,-6.14245 12.54904,-3.02349 23.5917,-6.87448 33.14014,-11.64844 9.68466,-4.93294 18.62356,-11.0543 26.80767,-18.42202 8.18462,-7.50032 14.93711,-16.24196 20.25684,-26.20357 5.31972,-10.0942 9.47095,-21.88054 12.47219,-35.38541 3.00228,-13.50486 4.52456,-28.64351 4.52456,-45.42127 0,-16.91565 -1.71852,-32.1922 -5.124,-45.82978 -3.27276,-13.78066 -7.78465,-25.51396 -13.51392,-35.19965 -5.72876,-9.68052 -13.09066,-18.15154 -22.09321,-25.38149 -8.86621,-7.22983 -18.27559,-13.01162 -28.23293,-17.37707 -9.82165,-4.50865 -21.27903,-8.04142 -34.37396,-10.63518 -12.95858,-2.70527 -25.71666,-4.56182 -38.2657,-5.53783 -12.54955,-0.95466 -26.52501,-1.43212 -41.93894,-1.43212 z m 290.22836,0.74251 c -8.72987,0 -14.73493,2.38705 -18.00886,7.15558 -3.27276,4.77396 -4.90655,10.00404 -4.90655,21.86994 0,11.87119 1.57545,16.93156 4.71562,21.4349 3.14017,4.50878 9.19827,6.77371 18.20095,6.77371 9.00255,0 15.06324,-2.28084 18.20082,-6.77371 3.27276,-4.50865 4.90656,-9.56371 4.90656,-21.4349 0,-11.8659 -1.68683,-17.10128 -5.09749,-21.86994 -3.27289,-4.77383 -9.27899,-7.15558 -18.00886,-7.15558 z"
         style="fill:#232323;fill-opacity:1;stroke:none;stroke-width:14.28562641;stroke-linecap:round;stroke-linejoin:miter;stroke-miterlimit:6;stroke-dasharray:none;stroke-opacity:1"
         id="path4543" />
    </g>
    <path
       style="font-style:normal;font-variant:normal;font-weight:300;font-stretch:normal;font-size:medium;line-height:1.25;font-family:Flexo;-inkscape-font-specification:'Flexo Light';letter-spacing:0px;word-spacing:0px;fill:#232323;fill-opacity:1;stroke:none;stroke-width:0.75207722;stroke-miterlimit:4;stroke-dasharray:none;stroke-opacity:1"
       d="m 456.19728,309.0014 c -0.46148,0 -0.88387,0.14218 -1.11931,0.48558 -0.22953,0.33437 -0.28556,0.76675 -0.28556,1.33529 0,0.56692 0.0482,0.98864 0.27773,1.3183 0.23737,0.34099 0.65963,0.46631 1.12738,0.46631 0.4651,0 0.88544,-0.12652 1.12371,-0.46329 0.23857,-0.32955 0.2946,-0.75398 0.2946,-1.32126 0,-0.56751 -0.0633,-1.00405 -0.29942,-1.33818 -0.23617,-0.34099 -0.65861,-0.48257 -1.11853,-0.48257 z m -279.83889,0.21869 v 18.85919 c 0,1.13527 0.13736,2.12578 0.42473,2.96795 l 0.004,0.004 c 0.29219,0.83055 0.735,1.58417 1.3242,2.25115 l 0.20002,0.22472 2.08137,-1.14359 -0.27954,-0.35003 c -0.85477,-1.06135 -1.28823,-2.41164 -1.28823,-4.1078 v -18.7043 z m 235.73512,0 v 18.85919 c 0,1.13527 0.13796,2.12578 0.42533,2.96795 l 0.004,0.004 c 0.29219,0.83055 0.73428,1.58417 1.32354,2.25115 l 0.20002,0.22472 2.08222,-1.14359 -0.28075,-0.35003 c -0.85477,-1.06135 -1.28752,-2.41164 -1.28752,-4.1078 v -18.7043 z m -191.68497,0.52535 c -0.61318,0 -1.17148,0.3181 -1.60699,0.85706 l -0.004,0.004 c -0.44221,0.55607 -0.69211,1.31318 -0.78886,2.24892 l -0.0422,0.41329 h 1.92865 l 0.0542,-0.31087 c 0.0801,-0.46389 0.20182,-0.77693 0.30846,-0.92465 0.11326,-0.15002 0.19881,-0.19159 0.37172,-0.19159 0.0958,0 0.16989,0.0241 0.26086,0.0886 l 0.004,0.004 h 0.004 c 0.12772,0.0868 0.24941,0.19399 0.36629,0.32172 0.14098,0.15362 0.29039,0.30604 0.44943,0.45847 l 0.004,0.004 0.004,0.004 c 0.19279,0.17773 0.43256,0.32111 0.70801,0.43859 h 0.004 c 0.30123,0.12531 0.63029,0.18556 0.97977,0.18556 0.61313,0 1.17233,-0.31991 1.60176,-0.86001 0.44763,-0.56089 0.70229,-1.32053 0.7991,-2.25699 l 0.0422,-0.41329 h -1.92353 l -0.0482,0.31388 c -0.0741,0.44462 -0.1958,0.75097 -0.31629,0.91586 -0.12049,0.16507 -0.20484,0.20544 -0.36329,0.20544 -0.0958,0 -0.17591,-0.0241 -0.27532,-0.0916 -0.12832,-0.0874 -0.25243,-0.18977 -0.3687,-0.31086 l -0.006,-0.006 c -0.13977,-0.15242 -0.28978,-0.30484 -0.45244,-0.45546 l -0.006,-0.004 c -0.19278,-0.18375 -0.42895,-0.33196 -0.70505,-0.44944 -0.29762,-0.12651 -0.6274,-0.18556 -0.97683,-0.18556 z m -72.05105,0.53558 c -0.96652,0 -1.82858,0.0542 -2.58967,0.17773 -0.76506,0.12109 -1.46602,0.32292 -2.10125,0.60812 v 0.004 h -0.004 c -0.63523,0.28797 -1.17389,0.66722 -1.60399,1.13768 -0.42594,0.47353 -0.74946,1.05792 -0.9717,1.73767 v 0.004 c -0.21749,0.67789 -0.32232,1.45 -0.32232,2.31495 0,0.42835 0.0301,0.82989 0.0862,1.20745 v 0.004 l 0.004,0.004 c 0.0645,0.37232 0.147,0.7141 0.25243,1.02454 0.10905,0.32051 0.25966,0.62258 0.45004,0.90188 0.18134,0.26569 0.37232,0.50366 0.57113,0.71609 0.20965,0.22351 0.4669,0.43075 0.76898,0.62794 0.29038,0.18917 0.57233,0.35786 0.84681,0.50486 l 0.004,0.004 h 0.004 c 0.27954,0.14338 0.61252,0.28797 1.00177,0.43859 l 0.004,0.004 h 0.004 c 0.38437,0.14279 0.74783,0.27111 1.09069,0.38317 0.34099,0.11205 0.74494,0.23857 1.21329,0.38075 h 0.004 c 0.51751,0.15242 0.95556,0.29039 1.31541,0.4163 0.35846,0.12531 0.72283,0.2705 1.0884,0.43257 h 0.004 l 0.004,0.004 c 0.36328,0.15243 0.65933,0.30786 0.88278,0.46028 l 0.004,0.004 c 0.23194,0.15302 0.45907,0.33256 0.6771,0.5392 0.20544,0.19459 0.35666,0.39823 0.46389,0.61324 0.11266,0.22592 0.20665,0.49101 0.27473,0.79693 v 0.006 0.004 c 0.0717,0.29098 0.11085,0.62125 0.11085,0.98857 0,0.63969 -0.0904,1.18076 -0.26087,1.63188 -0.17411,0.46088 -0.40364,0.81995 -0.68306,1.08846 -0.27653,0.26629 -0.6403,0.4904 -1.09943,0.66614 -0.46932,0.17953 -0.96056,0.30183 -1.47922,0.37172 -0.52595,0.0651 -1.13389,0.10001 -1.82653,0.10001 -1.61212,0 -3.26611,-0.13013 -4.96047,-0.3916 l -0.38316,-0.0609 -0.27472,2.25109 0.34159,0.0669 c 0.86447,0.17411 1.69273,0.29761 2.48689,0.36629 0.79609,0.0753 1.75611,0.11086 2.88126,0.11086 1.25528,0 2.35308,-0.10664 3.2984,-0.33075 0.95327,-0.22412 1.78298,-0.58138 2.47876,-1.07376 h 0.004 c 0.70505,-0.50547 1.23799,-1.18046 1.5879,-1.9992 h 0.004 c 0.35003,-0.82513 0.51631,-1.79726 0.51631,-2.90916 0,-0.76036 -0.11266,-1.46036 -0.344,-2.09541 v -0.004 c -0.2205,-0.62246 -0.51812,-1.16087 -0.89381,-1.60477 l -0.004,-0.004 c -0.37172,-0.44401 -0.84374,-0.84097 -1.40789,-1.19426 l -0.006,-0.004 c -0.55065,-0.35365 -1.10852,-0.64518 -1.67676,-0.86887 h -0.004 c -0.56089,-0.22713 -1.20745,-0.44702 -1.94046,-0.65807 -0.57294,-0.16447 -1.0434,-0.30424 -1.41307,-0.41931 -0.3681,-0.12109 -0.74235,-0.25122 -1.1237,-0.39642 h 0.006 c -0.3687,-0.1488 -0.65879,-0.28014 -0.86591,-0.39159 -0.20785,-0.11809 -0.4151,-0.25906 -0.62132,-0.42534 -0.19399,-0.15604 -0.33075,-0.30304 -0.41931,-0.43558 l -0.004,-0.006 c -0.094,-0.15784 -0.18676,-0.35063 -0.27171,-0.58258 -0.0807,-0.2205 -0.13374,-0.46148 -0.16145,-0.72198 -0.0301,-0.27171 -0.0422,-0.59102 -0.0422,-0.95478 0,-0.55125 0.0958,-1.00303 0.27472,-1.3712 h -0.004 c 0.19218,-0.38919 0.43497,-0.68312 0.73295,-0.90266 h 0.004 c 0.30906,-0.22894 0.71945,-0.42232 1.23823,-0.56631 0.53679,-0.1476 1.08906,-0.24942 1.657,-0.30244 l -0.004,0.004 c 0.58017,-0.0542 1.26071,-0.0831 2.0374,-0.0831 1.22914,0 2.59672,0.11085 4.0975,0.33557 l 0.38558,0.0602 0.24761,-2.23127 -0.35063,-0.0602 c -1.769,-0.29822 -3.53029,-0.44643 -5.28218,-0.44643 z m 180.04901,0.2193 v 2.28193 h 6.03797 v 19.91976 h 2.55659 v -19.91976 h 6.02911 v -2.28193 h -0.37473 z m -119.85934,4.83196 v 0 c -0.85303,0 -1.62441,0.0639 -2.31495,0.19158 -0.68452,0.12049 -1.29384,0.29762 -1.82364,0.53318 -0.52957,0.23797 -0.99599,0.55667 -1.39108,0.95182 -0.38678,0.38015 -0.70669,0.80091 -0.95773,1.26324 -0.25243,0.45967 -0.44943,0.99598 -0.59643,1.60995 -0.1458,0.60794 -0.24882,1.23787 -0.30545,1.8875 -0.0542,0.63999 -0.0837,1.36662 -0.0837,2.17915 0,0.98147 0.0482,1.86202 0.14158,2.64769 0.0952,0.78723 0.27291,1.56079 0.53317,2.31573 0.26388,0.76567 0.618,1.42415 1.06864,1.96757 h 0.004 c 0.45486,0.54221 1.04822,0.99267 1.76779,1.34921 h 0.004 c 0.57896,0.27954 1.28685,0.40364 2.00727,0.51329 l -1.21624,2.04613 h 0.66102 c 0.21026,0 0.43919,0.0241 0.68813,0.0747 l 0.004,0.004 c 0.25002,0.0482 0.49342,0.1247 0.73296,0.22471 0.22471,0.097 0.40184,0.22171 0.54161,0.38076 0.12591,0.14338 0.1717,0.2699 0.1717,0.4416 0,0.31569 -0.0753,0.441 -0.27954,0.55727 l -0.004,0.004 -0.004,0.004 c -0.24339,0.14579 -0.53077,0.2217 -0.88573,0.2217 -0.50848,0 -1.01816,-0.11085 -1.54019,-0.344 l -0.36449,-0.16387 -0.62427,1.65405 0.28858,0.15845 c 0.62837,0.34159 1.36722,0.50546 2.19596,0.50546 0.43739,0 0.84953,-0.0422 1.23758,-0.13917 0.38858,-0.094 0.74867,-0.23978 1.07153,-0.43859 0.34942,-0.21146 0.63282,-0.51149 0.82772,-0.87766 v -0.004 c 0.20423,-0.37352 0.30243,-0.80283 0.30243,-1.26546 0,-0.71042 -0.28014,-1.33975 -0.8079,-1.7737 h -0.004 c -0.36811,-0.29701 -0.86658,-0.37895 -1.3521,-0.48016 l 0.40847,-0.64409 c 1.0167,-0.0301 2.15222,-0.15664 3.4666,-0.41329 l 0.3416,-0.0669 -0.25243,-2.20699 -0.39943,0.0807 c -1.13961,0.23014 -2.04029,0.3416 -2.6786,0.3416 -0.58498,0 -1.11503,-0.0301 -1.59079,-0.097 h -0.006 c -0.47353,-0.0711 -0.8917,-0.16326 -1.24854,-0.27231 -0.34822,-0.10663 -0.64776,-0.25183 -0.90778,-0.43016 -0.27472,-0.18856 -0.50848,-0.38135 -0.70211,-0.58016 v -0.004 c 0,0 -0.004,0 -0.006,-0.004 -0.17592,-0.19278 -0.32894,-0.43015 -0.46148,-0.72198 -0.13977,-0.30907 -0.24942,-0.60975 -0.32955,-0.90189 -0.0789,-0.28797 -0.14399,-0.64499 -0.19158,-1.06641 -0.0482,-0.43317 -0.0819,-0.83922 -0.10001,-1.22142 v -0.006 c -0.012,-0.38617 -0.0181,-0.84525 -0.0181,-1.37414 0,-0.50004 0.004,-0.93333 0.0181,-1.30216 0.0121,-0.37051 0.0361,-0.7491 0.0723,-1.1325 v -0.006 c 0.0422,-0.38437 0.0964,-0.7094 0.15844,-0.96876 0.0693,-0.2699 0.15423,-0.54161 0.25786,-0.81308 l 0.004,-0.004 c 3.6e-4,0 -3e-4,0 0,-0.004 0.10483,-0.26327 0.22653,-0.47474 0.35545,-0.63312 v -0.004 l 0.004,-0.004 c 0.14158,-0.17953 0.31328,-0.35304 0.51631,-0.52233 v -0.004 c 0.1958,-0.16387 0.41991,-0.29641 0.67427,-0.39943 h 0.004 l 0.004,-0.004 c 0.26569,-0.11265 0.57114,-0.20965 0.91586,-0.29159 l 0.004,-0.004 c 0.34521,-0.0861 0.73175,-0.1476 1.16263,-0.18255 h 0.004 0.004 c 0.43979,-0.0422 0.92965,-0.0608 1.46596,-0.0608 0.83411,0 1.70966,0.0813 2.62859,0.24942 l 0.39943,0.0747 0.20905,-2.05794 -0.73957,-0.16628 c -1.02605,-0.22412 -2.06541,-0.38256 -3.13387,-0.38256 z m -43.38402,0 c -1.35993,0 -2.51219,0.15363 -3.46143,0.47233 -0.95321,0.31388 -1.75586,0.84308 -2.37664,1.57609 -0.61433,0.73325 -1.0502,1.65718 -1.31251,2.75131 -0.25484,1.08388 -0.37775,2.41327 -0.37775,3.99171 0,1.5785 0.12291,2.90728 0.37775,3.99689 0.26206,1.09413 0.69818,2.01806 1.31251,2.75125 v 0.004 c 0.62126,0.73361 1.42259,1.2648 2.37664,1.58494 h 0.004 c 0.94845,0.31208 2.09915,0.46028 3.45853,0.46028 1.08557,0 2.03668,-0.10362 2.85632,-0.31629 0.82398,-0.21267 1.54326,-0.53739 2.1512,-0.97978 h 0.004 c 0.61312,-0.45305 1.10683,-1.04942 1.47403,-1.77074 0.36389,-0.71446 0.62614,-1.53886 0.79097,-2.47069 l -0.004,0.004 c 0.1711,-0.93755 0.25545,-2.02354 0.25545,-3.26171 0,-1.24426 -0.0844,-2.33272 -0.25545,-3.26466 l 0.004,0.004 c -0.16447,-0.9379 -0.42714,-1.76394 -0.79097,-2.47875 -0.3675,-0.72169 -0.8626,-1.31523 -1.47698,-1.76274 -0.60801,-0.4428 -1.32746,-0.76536 -2.1512,-0.97158 h -0.004 c -0.81904,-0.21267 -1.76882,-0.31629 -2.85331,-0.31629 z m 56.74733,0 c -1.35993,0 -2.51219,0.15363 -3.46142,0.47233 -0.95321,0.31388 -1.75593,0.84308 -2.3767,1.57609 h -0.004 c -0.61427,0.73325 -1.04792,1.65718 -1.31023,2.75131 -0.25484,1.08388 -0.37774,2.41327 -0.37774,3.99171 0,1.5785 0.1229,2.90728 0.37774,3.99689 0.26207,1.09413 0.69596,2.01806 1.31023,2.75125 h 0.004 v 0.004 c 0.62125,0.73361 1.42258,1.2648 2.3767,1.58494 h 0.004 c 0.94846,0.31208 2.09987,0.46028 3.45926,0.46028 1.35457,0 2.50623,-0.15543 3.46143,-0.48016 h 0.004 c 0.95941,-0.33316 1.76098,-0.87441 2.37597,-1.61507 0.61313,-0.73831 1.04786,-1.66037 1.31029,-2.74829 0.26147,-1.08961 0.38557,-2.40412 0.38557,-3.9528 0,-1.55476 -0.1241,-2.87168 -0.38557,-3.9558 -0.26207,-1.09395 -0.6968,-2.01757 -1.31029,-2.75637 -0.61523,-0.7409 -1.41885,-1.27842 -2.37893,-1.59887 h -0.004 c -0.95484,-0.32472 -2.10511,-0.48015 -3.45854,-0.48015 z m 18.28421,0 c -1.37319,0 -2.53816,0.15965 -3.50041,0.491 -0.96062,0.33316 -1.75629,0.88339 -2.35905,1.63785 -0.59944,0.74433 -1.02177,1.6667 -1.27137,2.74829 -0.24821,1.07027 -0.3693,2.37333 -0.3693,3.91388 0,1.03382 0.0627,1.96745 0.18857,2.80637 v 0.004 c 0.13374,0.83862 0.36087,1.63676 0.68011,2.38989 v 0.004 c 0.33015,0.76343 0.76476,1.4118 1.30734,1.93449 h 0.004 c 0.54704,0.52053 1.24023,0.92779 2.06529,1.22432 h 0.004 c 0.83435,0.2934 1.78876,0.43558 2.85921,0.43558 1.40078,0 2.59497,-0.0422 3.58632,-0.13013 0.98514,-0.0868 2.06908,-0.21809 3.25363,-0.39702 l 0.36088,-0.0542 -0.26388,-2.21506 -0.38075,0.0542 c -2.23386,0.31749 -4.13546,0.47534 -5.69348,0.47534 -0.51631,0 -0.98683,-0.0241 -1.41234,-0.0729 l 0.006,0.004 c -0.41931,-0.0542 -0.79284,-0.12471 -1.12154,-0.21086 l -0.006,-0.004 c -0.31449,-0.0904 -0.59764,-0.20725 -0.84971,-0.34943 -0.26267,-0.1482 -0.48498,-0.30303 -0.67132,-0.46088 -0.17351,-0.15242 -0.33497,-0.33918 -0.48317,-0.5633 l -0.004,-0.006 c -0.14881,-0.23496 -0.27291,-0.46811 -0.37473,-0.69921 -0.0934,-0.23255 -0.18074,-0.50607 -0.25544,-0.82182 v -0.006 c -0.0711,-0.32653 -0.13013,-0.64216 -0.17773,-0.94966 v -0.006 c -0.0241,-0.19761 -0.0482,-0.44462 -0.0747,-0.68012 l 3.88893,-0.15784 c 1.17504,-0.0482 2.57949,-0.15182 4.21649,-0.30545 1.64351,-0.15362 2.93078,-0.30725 3.87272,-0.46329 l 0.29943,-0.0482 0.012,-0.29943 c 0.0301,-0.57113 0.0482,-1.14425 0.0482,-1.71568 0,-0.91574 -0.0723,-1.74008 -0.2199,-2.4758 -0.14218,-0.73988 -0.38858,-1.43 -0.73813,-2.06529 v -0.004 c -0.35424,-0.64927 -0.82103,-1.19383 -1.39108,-1.61875 -0.57474,-0.43437 -1.28884,-0.76313 -2.13433,-0.99369 -0.84464,-0.23195 -1.81038,-0.34401 -2.89812,-0.34401 z m 16.36645,0 c -0.70897,0 -1.35053,0.0422 -1.92648,0.13254 -0.57957,0.0843 -1.12913,0.23255 -1.64297,0.44702 -0.51811,0.21267 -0.96038,0.50125 -1.3183,0.86598 -0.35545,0.36268 -0.63083,0.81964 -0.82995,1.35722 v 0.004 l -0.004,0.004 c -0.1958,0.54643 -0.28858,1.16684 -0.28858,1.85744 0,0.85941 0.1723,1.62001 0.52715,2.26211 0.47655,0.84947 1.32354,1.50133 2.48683,1.97053 v -0.004 c 0.41088,0.16809 1.19492,0.41991 2.40164,0.77705 0.35425,0.10362 0.63493,0.18978 0.83802,0.25544 l 0.004,0.004 h 0.006 c 0.20062,0.0602 0.4404,0.13676 0.71825,0.23375 l 0.006,0.004 h 0.006 c 0.28135,0.0898 0.49281,0.1699 0.62427,0.22773 h 0.004 0.004 c 0.15001,0.0633 0.32714,0.14821 0.53017,0.24942 h 0.004 l 0.006,0.004 c 0.19098,0.0898 0.32532,0.17351 0.39641,0.23255 l 0.006,0.006 0.0121,0.006 c 0.10362,0.0765 0.2199,0.17291 0.34762,0.28858 l 0.004,0.004 0.004,0.004 c 0.10664,0.0922 0.17532,0.17953 0.21689,0.25845 0.0602,0.11387 0.11748,0.24641 0.17471,0.39461 l 0.004,0.006 0.004,0.006 c 0.0542,0.12652 0.0904,0.26568 0.11085,0.41931 0.0241,0.16507 0.0301,0.34882 0.0301,0.54944 0,0.27653 -0.0301,0.52414 -0.094,0.74398 -0.0657,0.22291 -0.14761,0.40726 -0.24159,0.55547 l -0.004,0.004 -0.004,0.006 c -0.0825,0.13796 -0.20002,0.26689 -0.36329,0.38919 -0.18134,0.13013 -0.35123,0.23495 -0.50727,0.31568 -0.13916,0.0723 -0.3434,0.1458 -0.60517,0.20845 -0.27532,0.0657 -0.50907,0.11327 -0.69698,0.14158 -0.17652,0.0301 -0.42895,0.0482 -0.74693,0.0693 -0.32352,0.0181 -0.57715,0.0301 -0.755,0.0362 h -0.74109 c -1.26546,0 -2.63449,-0.11868 -4.10268,-0.35545 l -0.38316,-0.0609 -0.26569,2.14024 0.33858,0.0699 c 1.63423,0.33678 3.34058,0.50547 5.11331,0.50547 0.76302,0 1.45012,-0.0422 2.06746,-0.13375 0.62818,-0.0898 1.22546,-0.244 1.78768,-0.46329 h 0.004 c 0.56933,-0.22893 1.05419,-0.53077 1.44904,-0.90489 0.40666,-0.37895 0.7209,-0.85851 0.9408,-1.4241 v -0.004 c 0.22893,-0.57957 0.33858,-1.23745 0.33858,-1.96757 0,-0.4904 -0.0482,-0.93737 -0.147,-1.34114 v -0.004 c -0.10182,-0.41269 -0.26809,-0.7888 -0.49643,-1.12154 v -0.004 c -0.21989,-0.32593 -0.47835,-0.61487 -0.77187,-0.86886 -0.2952,-0.26087 -0.66216,-0.49703 -1.09948,-0.71609 l -0.004,-0.004 c -0.42293,-0.21448 -0.86447,-0.40727 -1.32348,-0.57716 h -0.004 c -0.45184,-0.16929 -0.99117,-0.34943 -1.62164,-0.54161 h -0.004 -0.004 c -0.16749,-0.0482 -0.41209,-0.12109 -0.73,-0.21869 h -0.004 l -0.004,-0.004 c -0.6365,-0.18375 -1.06719,-0.31147 -1.27426,-0.38075 -0.19339,-0.0645 -0.49642,-0.194 -0.88796,-0.38016 -0.37112,-0.17712 -0.59101,-0.35304 -0.65807,-0.44461 -0.10181,-0.1464 -0.21628,-0.36931 -0.33015,-0.66614 -0.10302,-0.26689 -0.15784,-0.59282 -0.15784,-0.97978 0,-0.23857 0.0241,-0.45003 0.0831,-0.63824 0.0602,-0.20122 0.13254,-0.36148 0.20845,-0.48558 l 0.004,-0.004 c 0.0777,-0.1229 0.18074,-0.23496 0.3187,-0.33858 0.16266,-0.11748 0.31448,-0.21448 0.45847,-0.28918 0.13676,-0.0681 0.31509,-0.12953 0.5386,-0.18014 h 0.004 0.006 c 0.24399,-0.0602 0.45847,-0.10483 0.64114,-0.13374 0.18013,-0.0301 0.41087,-0.0482 0.69114,-0.0693 0.28978,-0.0181 0.52233,-0.0301 0.69403,-0.0301 h 0.006 0.006 c 0.18436,-0.006 0.42414,-0.006 0.71609,-0.006 1.22046,0 2.57213,0.1229 4.05268,0.37171 l 0.38617,0.0639 0.2687,-2.12619 -0.34521,-0.0675 c -1.72369,-0.3422 -3.46197,-0.51329 -5.21097,-0.51329 z m 25.39954,0 c -1.37318,0 -2.53816,0.15965 -3.50041,0.491 -0.96062,0.33316 -1.75628,0.88339 -2.3591,1.63785 -0.59945,0.74433 -1.02165,1.6667 -1.27131,2.74829 -0.24822,1.07027 -0.36931,2.37333 -0.36931,3.91388 0,1.03382 0.0627,1.96745 0.18857,2.80637 v 0.004 c 0.13375,0.83862 0.36087,1.63676 0.68012,2.38989 v 0.004 c 0.33014,0.76343 0.76771,1.4118 1.31028,1.93449 0.54704,0.52053 1.2401,0.92779 2.06529,1.22432 h 0.004 c 0.83434,0.2934 1.78876,0.43558 2.85921,0.43558 1.40078,0 2.59503,-0.0422 3.58631,-0.13013 0.98521,-0.0868 2.06837,-0.21809 3.25292,-0.39702 l 0.36148,-0.0542 -0.26388,-2.21506 -0.38076,0.0542 c -2.23379,0.31749 -4.13545,0.47534 -5.69341,0.47534 -0.51631,0 -0.98755,-0.0241 -1.41313,-0.0729 -0.4181,-0.0542 -0.7935,-0.12471 -1.12148,-0.21086 -0.31568,-0.091 -0.59944,-0.20665 -0.85199,-0.34943 -0.26267,-0.1482 -0.48558,-0.30303 -0.67198,-0.46088 -0.17351,-0.15242 -0.33437,-0.33918 -0.48257,-0.5633 l -0.004,-0.006 c -0.14881,-0.23496 -0.27292,-0.46871 -0.37473,-0.7 -0.0934,-0.23194 -0.17773,-0.50606 -0.25243,-0.82181 -0.0717,-0.32834 -0.13314,-0.64554 -0.18074,-0.95478 v -0.006 c -0.0241,-0.19761 -0.0482,-0.44462 -0.0747,-0.68012 l 3.88887,-0.15784 c 1.17509,-0.0482 2.57955,-0.15182 4.21649,-0.30545 1.64356,-0.15363 2.93084,-0.30725 3.87278,-0.46329 l 0.29942,-0.0482 0.0181,-0.29942 c 0.0301,-0.57173 0.0422,-1.14431 0.0422,-1.71568 0,-0.91574 -0.0723,-1.74014 -0.2199,-2.47586 -0.14218,-0.73958 -0.38557,-1.43018 -0.73518,-2.06529 l -0.004,-0.004 c -0.35424,-0.64849 -0.82151,-1.19419 -1.39107,-1.61869 -0.57475,-0.43437 -1.28884,-0.76319 -2.13427,-0.99375 -0.84471,-0.23195 -1.81045,-0.34401 -2.89813,-0.34401 z m 18.07406,0 c -1.08087,0 -2.25355,0.13736 -3.52022,0.40545 -1.25661,0.26147 -2.36357,0.58138 -3.3278,0.96574 l -0.22532,0.0886 -0.012,0.24158 c -0.0422,0.81814 -0.0669,1.72864 -0.0669,2.73432 v 12.93292 h 2.46484 v -11.8562 c 0,-0.80314 0.012,-1.61959 0.0361,-2.44279 0.51149,-0.19641 1.1113,-0.37955 1.88534,-0.53017 0.87446,-0.17471 1.58808,-0.25785 2.12625,-0.25785 0.88369,0 1.59447,0.088 2.11813,0.24942 h 0.004 0.004 c 0.52354,0.15423 0.90556,0.40244 1.1854,0.74988 v 0.004 c 0.29099,0.35545 0.49341,0.78452 0.60517,1.3051 v 0.004 0.004 c 0.11929,0.52293 0.18556,1.22377 0.18556,2.09541 v 10.67888 h 2.46267 V 321.624 c 0,-1.20076 -0.16387,-2.11102 -0.41148,-2.90114 0.67156,-0.33075 1.37372,-0.61084 2.14608,-0.7932 h 0.004 c 0.86718,-0.20905 1.64496,-0.31147 2.33188,-0.31147 0.59101,0 1.10316,0.0361 1.5291,0.11386 h 0.004 c 0.42112,0.0681 0.77615,0.18436 1.06346,0.33858 h 0.004 c 0.2958,0.15363 0.53076,0.33557 0.71096,0.54161 v 0.004 h 0.004 c 0.18134,0.20183 0.33376,0.46631 0.44943,0.802 v 0.004 l 0.004,0.004 c 0.1235,0.33677 0.20965,0.70921 0.25544,1.11853 v 0.004 0.004 c 0.0542,0.40786 0.0801,0.90254 0.0801,1.47988 v 10.67816 h 2.46261 v -11.0806 c 0,-0.50426 -0.0181,-0.96231 -0.0542,-1.37421 v -0.006 c -0.0301,-0.41992 -0.10543,-0.84501 -0.21388,-1.27939 -0.10362,-0.44461 -0.247,-0.84253 -0.43557,-1.18835 -0.18375,-0.35424 -0.42896,-0.68873 -0.73302,-0.99959 -0.31327,-0.32654 -0.68505,-0.59222 -1.1075,-0.79392 -0.4187,-0.20906 -0.91326,-0.36269 -1.4821,-0.47173 -0.57053,-0.11688 -1.20378,-0.17471 -1.89932,-0.17471 -2.32229,0 -4.41765,0.48196 -6.2928,1.40427 -0.98074,-0.92381 -2.41791,-1.40427 -4.33836,-1.40427 z m 50.29886,0 c -1.37312,0 -2.53816,0.15965 -3.5004,0.491 -0.96141,0.33376 -1.75973,0.88248 -2.36273,1.63785 -0.59944,0.74433 -1.01881,1.6667 -1.26841,2.74829 -0.24822,1.07027 -0.36931,2.37333 -0.36931,3.91388 0,1.03382 0.0627,1.96745 0.18857,2.80637 v 0.004 c 0.13375,0.83862 0.35907,1.63676 0.67789,2.38989 h 0.004 v 0.004 c 0.33015,0.76343 0.76555,1.4118 1.30806,1.93449 h 0.004 c 0.54703,0.52053 1.24016,0.92779 2.06529,1.22432 h 0.004 c 0.83434,0.2934 1.7858,0.43558 2.85625,0.43558 1.40078,0 2.59576,-0.0422 3.5871,-0.13013 0.98514,-0.0868 2.07126,-0.21809 3.25581,-0.39702 l 0.35846,-0.0542 -0.26146,-2.21506 -0.38257,0.0542 c -2.23385,0.31749 -4.1325,0.47534 -5.69052,0.47534 -0.51631,0 -0.98755,-0.0241 -1.41307,-0.0729 l 0.006,0.004 c -0.41871,-0.0542 -0.79278,-0.12471 -1.12148,-0.21086 l -0.006,-0.004 c -0.31448,-0.0904 -0.59703,-0.20725 -0.84898,-0.34943 -0.26267,-0.1482 -0.48558,-0.30303 -0.67204,-0.46088 -0.17291,-0.15182 -0.33497,-0.33979 -0.48317,-0.5633 -0.14761,-0.23315 -0.27292,-0.4651 -0.37473,-0.69403 v -0.004 c -0.0946,-0.23375 -0.18195,-0.51088 -0.25786,-0.82994 v -0.006 c -0.0717,-0.32834 -0.13314,-0.64638 -0.18073,-0.9555 l 0.004,0.006 c -0.0241,-0.19882 -0.0482,-0.44823 -0.0747,-0.68524 l 3.88598,-0.15845 c 1.17425,-0.0482 2.58087,-0.15182 4.21649,-0.30544 1.6435,-0.15363 2.93295,-0.30726 3.87489,-0.46329 l 0.29762,-0.0482 0.0181,-0.29942 c 0.0301,-0.57113 0.0482,-1.14431 0.0482,-1.71569 0,-0.91471 -0.0729,-1.73779 -0.2199,-2.47291 v -0.004 c -0.14218,-0.74018 -0.38799,-1.42963 -0.73813,-2.06522 v -0.004 c -0.35425,-0.64927 -0.82104,-1.19305 -1.39108,-1.61796 -0.57475,-0.43438 -1.28884,-0.76392 -2.13433,-0.99448 -0.84465,-0.23195 -1.81039,-0.34401 -2.89807,-0.34401 z m 18.08732,0 c -0.85308,0 -1.62447,0.0639 -2.31507,0.19158 -0.68566,0.12049 -1.293,0.29762 -1.82358,0.53318 -0.52836,0.23797 -0.99653,0.55486 -1.39108,0.94887 -0.38738,0.38075 -0.70855,0.8032 -0.9599,1.26619 -0.25243,0.45907 -0.44702,0.99634 -0.59402,1.60995 -0.14579,0.60794 -0.24882,1.23787 -0.30545,1.8875 -0.0542,0.63999 -0.0831,1.36662 -0.0831,2.17915 0,0.73868 0.0241,1.41265 0.0747,2.02637 0.0482,0.61783 0.14278,1.23456 0.27472,1.85148 v 0.004 0.004 c 0.13977,0.6227 0.32111,1.181 0.54944,1.67598 0.22833,0.49642 0.52294,0.9614 0.87989,1.39619 v 0.004 c 0.36991,0.44281 0.80296,0.8138 1.29336,1.10533 h 0.004 l 0.004,0.004 c 0.49703,0.28496 1.07304,0.50366 1.7267,0.66397 h 0.004 c 0.6665,0.16206 1.40006,0.24159 2.2041,0.24159 1.16184,0 2.5058,-0.14941 4.0387,-0.44703 l 0.34461,-0.0669 -0.17472,-1.46012 0.54643,-0.10784 -1.43216,-0.95484 0.0542,0.4416 c -0.93803,0.17411 -1.77569,0.29702 -2.32597,0.29702 -0.58559,0 -1.11509,-0.0301 -1.59086,-0.097 h -0.006 c -0.47413,-0.0711 -0.89351,-0.16266 -1.25745,-0.27231 -0.34822,-0.10664 -0.65066,-0.25183 -0.91068,-0.43016 -0.27412,-0.18857 -0.50124,-0.38256 -0.68819,-0.57956 -0.17772,-0.19339 -0.33858,-0.43437 -0.47714,-0.72783 v -0.004 c 0,0 -0.004,0 -0.004,-0.004 -0.13857,-0.30665 -0.24761,-0.60643 -0.32774,-0.8967 -0.0789,-0.28797 -0.14399,-0.64505 -0.19158,-1.06647 -0.0482,-0.43256 -0.0819,-0.83916 -0.10001,-1.22136 v -0.006 c -0.012,-0.38678 -0.0181,-0.84229 -0.0181,-1.37119 0,-0.56029 0.006,-1.04557 0.0241,-1.4491 0.0181,-0.40184 0.0542,-0.81398 0.1,-1.23534 0.0482,-0.41268 0.11447,-0.75265 0.19701,-1.01574 v -0.004 c 0.0856,-0.27894 0.1976,-0.55366 0.33557,-0.82995 v -0.004 c 0.13615,-0.26568 0.29279,-0.47775 0.46931,-0.63896 0.19219,-0.17532 0.42715,-0.34401 0.70217,-0.50486 0.25785,-0.15062 0.5627,-0.2675 0.91875,-0.35244 v -0.004 h 0.004 c 0.37352,-0.0934 0.79711,-0.16568 1.26841,-0.2193 0.47353,-0.0542 1.00864,-0.0801 1.60477,-0.0801 0.82772,0 1.70141,0.0813 2.62046,0.24942 l 0.39641,0.0717 0.22773,-2.09023 -0.3187,-0.0777 c -1.15931,-0.28978 -2.34989,-0.43558 -3.57017,-0.43558 z m 14.68969,0 c -1.403,0 -2.76179,0.12471 -4.07473,0.37473 -1.30263,0.24942 -2.45905,0.58258 -3.46956,0.9996 l -0.22231,0.0916 -0.012,0.23858 c -0.0422,1.0167 -0.0639,1.9269 -0.0639,2.73136 v 12.93298 h 2.46484 v -12.01417 c 0,-0.75048 0.0181,-1.51096 0.0361,-2.27898 0.5133,-0.1964 1.16425,-0.38617 2.06824,-0.54402 1.00304,-0.17531 1.87491,-0.26086 2.6066,-0.26086 0.54101,0 1.02207,0.0241 1.44018,0.0723 h 0.004 0.004 c 0.42172,0.0422 0.78639,0.11085 1.09359,0.20544 l 0.004,0.004 h 0.004 c 0.31448,0.0916 0.57716,0.20182 0.79103,0.32472 l 0.006,0.004 0.006,0.004 c 0.20965,0.11266 0.37955,0.25243 0.51932,0.42714 l 0.004,0.004 0.006,0.006 c 0.15784,0.18496 0.28195,0.37835 0.37774,0.58017 v 0.004 h 0.004 c 0.0916,0.18796 0.16808,0.43557 0.22471,0.7359 l 0.004,0.004 v 0.004 c 0.0639,0.30726 0.10483,0.6171 0.1217,0.92984 v 0.004 0.004 c 0.0241,0.31268 0.0361,0.68952 0.0361,1.12443 v 10.66792 h 2.46261 v -11.08144 c 0,-0.40486 -0.006,-0.76904 -0.0301,-1.09136 -0.0181,-0.32533 -0.0602,-0.66547 -0.11386,-1.02382 v -0.006 c -0.0542,-0.37172 -0.12592,-0.70199 -0.22773,-0.9937 v -0.004 c -0.10001,-0.2928 -0.23135,-0.58379 -0.39461,-0.87694 -0.16929,-0.30485 -0.37714,-0.57595 -0.61915,-0.80495 l -0.004,-0.004 c -0.23375,-0.22653 -0.5151,-0.43257 -0.84091,-0.62204 l -0.004,-0.004 c -0.33496,-0.20062 -0.70891,-0.35666 -1.11864,-0.47474 -0.40546,-0.1241 -0.8673,-0.21688 -1.38511,-0.28074 h -0.006 c -0.52112,-0.0699 -1.08828,-0.10483 -1.70176,-0.10483 z m 17.78838,0 c -1.35993,0 -2.51292,0.15363 -3.46215,0.47233 -0.95321,0.31388 -1.7552,0.84308 -2.37598,1.57609 -0.61426,0.73325 -1.05087,1.65718 -1.31324,2.75131 -0.25484,1.08388 -0.37774,2.41327 -0.37774,3.99171 0,1.5785 0.1229,2.90728 0.37774,3.99689 0.26207,1.09413 0.69898,2.01806 1.31324,2.75125 v 0.004 c 0.62126,0.73361 1.42187,1.2648 2.37598,1.58494 h 0.004 c 0.94845,0.31208 2.09987,0.46028 3.45925,0.46028 1.08558,0 2.03668,-0.10362 2.85626,-0.31629 0.82398,-0.21267 1.54332,-0.53739 2.1512,-0.97978 h 0.004 c 0.61324,-0.45305 1.10684,-1.04942 1.47409,-1.77074 0.36329,-0.71368 0.62319,-1.53712 0.78802,-2.46779 v -0.004 c 0.1705,-0.93695 0.25544,-2.02161 0.25544,-3.25876 0,-1.24426 -0.0843,-2.33272 -0.25544,-3.26461 l 0.004,0.004 c -0.16508,-0.93785 -0.42715,-1.76388 -0.79103,-2.47875 -0.3675,-0.72169 -0.8626,-1.31523 -1.47699,-1.76268 -0.608,-0.44281 -1.32746,-0.76542 -2.1512,-0.97164 h -0.004 c -0.81911,-0.21267 -1.76882,-0.31629 -2.85337,-0.31629 z m 24.98824,0 c -1.35999,0 -2.51225,0.15363 -3.46149,0.47233 -0.95315,0.31388 -1.75514,0.84308 -2.37591,1.57609 h -0.004 c -0.61427,0.73325 -1.04792,1.65718 -1.31023,2.75131 -0.25484,1.08388 -0.37774,2.41327 -0.37774,3.99171 -6e-5,1.5785 0.1229,2.90728 0.37774,3.99689 0.26207,1.09413 0.69596,2.01806 1.31023,2.75125 h 0.004 v 0.004 c 0.62125,0.73361 1.42186,1.2648 2.37591,1.58494 h 0.004 c 0.94851,0.31208 2.09921,0.46028 3.45854,0.46028 1.08448,0 2.03432,-0.10422 2.85336,-0.31629 0.82398,-0.21267 1.54621,-0.53739 2.15415,-0.97978 h 0.004 c 0.61318,-0.45305 1.10684,-1.04942 1.47404,-1.77074 0.36328,-0.71368 0.62324,-1.53712 0.78807,-2.46779 v -0.004 c 0.1705,-0.93695 0.25544,-2.02161 0.25544,-3.25876 6e-5,-1.24318 -0.0849,-2.33031 -0.25544,-3.26171 v -0.004 c -0.16507,-0.9367 -0.42473,-1.76171 -0.78807,-2.4758 -0.3675,-0.72169 -0.86254,-1.31523 -1.47699,-1.76268 -0.60861,-0.44341 -1.3315,-0.76548 -2.15632,-0.97164 -0.8185,-0.21207 -1.76768,-0.3163 -2.85114,-0.3163 z m 18.38698,0 c -1.33963,0 -2.47936,0.13917 -3.42474,0.43015 -0.9458,0.2934 -1.75773,0.79061 -2.40971,1.48211 -0.65795,0.69783 -1.12744,1.6076 -1.41608,2.70426 v 0.004 c -0.28135,1.09274 -0.4163,2.42321 -0.4163,3.99755 0,1.57242 0.1223,2.89409 0.37774,3.97786 v 0.004 c 0.26207,1.0869 0.68705,1.99077 1.28529,2.6954 l 0.004,0.004 c 0.60185,0.6944 1.36336,1.19456 2.25699,1.49024 0.88706,0.2934 1.95829,0.43618 3.21984,0.43618 1.42867,0 2.95783,-0.24941 4.53892,-0.62794 v 1.19938 c 0,0.7324 -0.0687,1.31233 -0.18857,1.72664 v 0.004 0.004 c -0.11145,0.40786 -0.31448,0.74048 -0.62722,1.02677 -0.30123,0.27592 -0.72945,0.48618 -1.30806,0.61107 -0.58559,0.12652 -1.37571,0.19158 -2.35904,0.19158 -1.38198,0 -3.18123,-0.16145 -5.38496,-0.4916 l -0.38919,-0.0602 -0.197,1.83545 0.37232,-0.33617 -0.0602,0.74693 c 1.18883,0.19098 2.24163,0.33436 3.15887,0.42714 0.92339,0.10001 1.90715,0.15001 2.95615,0.15001 0.74994,0 1.42041,-0.0422 2.01311,-0.1247 0.60662,-0.0838 1.19143,-0.24039 1.75388,-0.46631 v 0.004 c 0.58017,-0.23074 1.07226,-0.54884 1.46301,-0.95255 l 0.004,-0.004 c 0.39521,-0.40304 0.69945,-0.92417 0.92176,-1.55187 0.22653,-0.63342 0.33557,-1.36029 0.33557,-2.17909 V 319.6983 c 0,-1.00563 -0.0241,-1.91612 -0.0669,-2.73432 l -0.012,-0.21568 -0.19158,-0.0976 c -1.71599,-0.88031 -3.79025,-1.31252 -6.20985,-1.31252 z m 23.61994,0 c -1.049,0 -2.03065,0.0482 -2.94223,0.15001 -0.90417,0.0928 -1.94094,0.23195 -3.117,0.4163 l -0.35545,0.0542 0.26086,2.41785 0.43618,-0.28858 c 2.19765,-0.31448 3.97009,-0.48016 5.26525,-0.48016 0.65741,0 1.22354,0.0301 1.69363,0.0892 0.47354,0.0602 0.87441,0.15603 1.19938,0.28255 h 0.004 l 0.006,0.004 c 0.33617,0.1235 0.59161,0.26869 0.77482,0.42714 h 0.004 l 0.004,0.004 c 0.18796,0.15844 0.34039,0.36207 0.46148,0.62499 0.12531,0.27291 0.21327,0.57113 0.26388,0.90188 v 0.004 c 0.0542,0.32954 0.0801,0.73825 0.0801,1.22142 v 0.66186 c -3.29725,0.1211 -5.77251,0.27713 -7.17263,0.48619 -1.40222,0.20965 -2.50767,0.77512 -3.24189,1.7017 -0.73416,0.92658 -1.08256,2.18078 -1.08256,3.72217 0,0.93791 0.13074,1.7493 0.41329,2.42887 0.28376,0.68295 0.74181,1.24372 1.35143,1.65689 h 0.004 v 0.004 c 0.59885,0.39943 1.31487,0.68126 2.13795,0.85483 h 0.004 c 0.81976,0.16628 1.79623,0.24761 2.93698,0.24761 2.66094,0 4.93805,-0.42955 6.82309,-1.3051 l 0.20845,-0.097 0.012,-0.22773 c 0.0422,-1.01068 0.0639,-1.92082 0.0639,-2.73143 v -7.95257 c 0,-0.68259 -0.0735,-1.30047 -0.22472,-1.85449 v -0.004 c -0.14579,-0.56089 -0.37232,-1.04388 -0.68596,-1.44102 -0.29099,-0.38196 -0.62686,-0.70765 -1.00767,-0.96869 l -0.004,-0.004 c -0.38858,-0.27231 -0.84344,-0.47775 -1.35511,-0.6221 -0.49823,-0.14037 -1.00665,-0.23917 -1.52398,-0.29701 -0.50787,-0.0542 -1.06882,-0.0867 -1.68779,-0.0867 z m -284.8625,0.22231 v 11.0806 0.25845 l 0.006,0.004 c 0.004,0.29219 0.006,0.58198 0.0241,0.82694 0.0181,0.32412 0.0542,0.66824 0.10302,1.03267 v 0.006 0.004 c 0.0602,0.3669 0.13796,0.69855 0.23857,0.9937 v 0.004 c 0.10001,0.28677 0.23195,0.57294 0.39461,0.86592 0.16989,0.30544 0.37352,0.57776 0.61029,0.80795 l 0.004,0.004 c 0.23857,0.22472 0.52113,0.43197 0.84681,0.62722 l 0.004,0.004 h 0.004 c 0.33436,0.19399 0.70584,0.35364 1.11051,0.47715 h 0.004 l 0.004,0.004 c 0.40846,0.11688 0.87193,0.20544 1.38812,0.2687 0.52294,0.0699 1.09214,0.10242 1.70761,0.10242 1.38493,0 2.72402,-0.12411 4.01888,-0.37473 1.29643,-0.24942 2.45436,-0.58017 3.47028,-0.99671 l 0.2187,-0.0916 0.012,-0.23556 c 0.0422,-0.8182 0.0639,-1.73165 0.0639,-2.73733 V 315.5617 h -2.45454 v 11.85325 c 0,0.63391 -0.0181,1.48259 -0.0482,2.43689 -0.51329,0.1964 -1.16316,0.38617 -2.06233,0.54402 -0.99081,0.17531 -1.84413,0.26146 -2.5566,0.26146 -0.5404,0 -1.02345,-0.0181 -1.44909,-0.0615 h -0.006 c -0.41388,-0.0482 -0.77602,-0.11808 -1.08551,-0.20785 -0.31809,-0.0982 -0.5886,-0.20965 -0.81374,-0.33075 h -0.004 c -0.20604,-0.11989 -0.38076,-0.26267 -0.52836,-0.43557 -0.15122,-0.19038 -0.27291,-0.38497 -0.3687,-0.58017 v -0.004 c 0,0 -0.004,0 -0.004,-0.004 -0.0934,-0.19821 -0.17351,-0.44883 -0.23556,-0.74915 -0.0602,-0.30605 -0.0994,-0.61307 -0.12291,-0.91881 v -0.006 c -0.0181,-0.32051 -0.0241,-0.69614 -0.0241,-1.12961 v -10.66786 z m 271.93542,0 v 17.14645 h 0.37473 2.08806 v -17.14645 z m -214.77238,2.0204 v 0 c 0.93357,6e-5 1.72158,0.11206 2.35904,0.32232 0.64614,0.21146 1.1316,0.51148 1.47922,0.89091 v 0.004 c 0.3681,0.39582 0.63457,0.85019 0.80272,1.3771 0.16929,0.52474 0.25785,1.1469 0.25785,1.86473 0,0.39642 -0.0121,0.67891 -0.0241,0.96068 -1.7643,0.20665 -3.60572,0.36569 -5.55244,0.45847 l -4.33843,0.20303 c 0.006,-0.63216 0.0241,-1.24149 0.0723,-1.72671 v -0.006 c 0.0657,-0.59161 0.17351,-1.13865 0.3193,-1.64073 v -0.004 c 0.15001,-0.50004 0.34581,-0.90333 0.57716,-1.21558 0.23496,-0.3169 0.52775,-0.58981 0.89091,-0.81887 h 0.004 c 0.36027,-0.22893 0.79284,-0.39641 1.30734,-0.49943 l 0.004,-0.004 c 0.51932,-0.10965 1.13576,-0.16688 1.8457,-0.16688 z m 41.76599,0 c 0.93393,0 1.72213,0.11206 2.35971,0.32232 0.6462,0.21146 1.13166,0.51148 1.47922,0.89091 v 0.004 c 0.3681,0.39582 0.63457,0.85019 0.80277,1.3771 0.16929,0.52474 0.25786,1.1469 0.25786,1.86473 0,0.39642 -0.012,0.67891 -0.0301,0.96068 -1.7643,0.20665 -3.60493,0.36569 -5.55171,0.45847 l -4.33837,0.20303 c 0.006,-0.63216 0.0241,-1.24149 0.0717,-1.72671 v -0.006 c 0.0657,-0.59161 0.17351,-1.13865 0.31931,-1.64073 v -0.004 c 0.15001,-0.50004 0.34581,-0.90333 0.57715,-1.21558 0.23496,-0.3169 0.52775,-0.58981 0.89092,-0.81887 h 0.004 c 0.36027,-0.22893 0.79284,-0.39641 1.30728,-0.49943 h 0.004 v -0.004 c 0.51932,-0.10965 1.13539,-0.16688 1.84569,-0.16688 z m 68.37292,0 c 0.93393,0 1.72141,0.11206 2.35899,0.32232 0.64614,0.21146 1.12949,0.51148 1.47699,0.89091 l 0.004,0.004 c 0.3681,0.39582 0.63384,0.85019 0.80205,1.3771 0.16929,0.52474 0.25845,1.1469 0.25845,1.86473 0,0.39642 -0.012,0.67891 -0.0301,0.96068 -1.7643,0.20665 -3.60493,0.36569 -5.55172,0.45847 l -4.33915,0.20303 c 0.006,-0.63216 0.0241,-1.24149 0.0729,-1.72671 v -0.006 c 0.0657,-0.59161 0.17291,-1.13865 0.3187,-1.64073 v -0.004 c 0.15001,-0.50004 0.3434,-0.90333 0.57535,-1.21558 0.23496,-0.3169 0.53077,-0.58981 0.89387,-0.81887 0.36027,-0.22893 0.79573,-0.39641 1.31023,-0.49943 l 0.004,-0.004 c 0.51932,-0.10965 1.1354,-0.16688 1.8457,-0.16688 z m 93.94061,0.012 c 0.6997,0 1.42861,0.0681 2.18789,0.20544 0.67879,0.1217 1.25709,0.30786 1.78768,0.52414 0.0241,0.81519 0.0361,1.63055 0.0361,2.44568 v 8.90452 c -0.50727,0.15905 -1.06316,0.30665 -1.7355,0.42714 -0.76651,0.13134 -1.4759,0.19761 -2.13138,0.19761 -0.76361,0 -1.41993,-0.0482 -1.96245,-0.14158 -0.53859,-0.0928 -0.99954,-0.24399 -1.38812,-0.44943 -0.3922,-0.20725 -0.70488,-0.45667 -0.94671,-0.74693 -0.23977,-0.294 -0.4422,-0.67734 -0.60245,-1.1575 -0.15604,-0.49282 -0.2687,-1.04123 -0.33377,-1.64363 -0.0657,-0.61409 -0.1,-1.34788 -0.1,-2.20337 0,-1.20167 0.0964,-2.20374 0.27773,-2.9929 0.18013,-0.79067 0.47413,-1.42867 0.87477,-1.92943 0.39883,-0.50366 0.90423,-0.86062 1.54308,-1.08479 0.65077,-0.23195 1.48307,-0.35545 2.48978,-0.35545 z m -279.11106,0.0181 c 1.02303,0 1.85045,0.11146 2.47074,0.31449 0.60939,0.19941 1.09039,0.53619 1.47621,1.03267 v 0.004 h 0.004 c 0.391,0.4898 0.67295,1.13503 0.83579,1.94926 v 0.004 c 0.1699,0.82115 0.26087,1.89943 0.26087,3.22057 0,1.0534 -0.0627,1.94781 -0.18074,2.68148 v 0.004 c -0.11266,0.72801 -0.28797,1.34511 -0.52173,1.85153 -0.22893,0.49643 -0.53257,0.87254 -0.91363,1.1516 v 0.004 c -0.38557,0.28677 -0.8482,0.49823 -1.39619,0.63535 -0.55005,0.13134 -1.22842,0.20062 -2.03445,0.20062 -0.67162,0 -1.25058,-0.0422 -1.73255,-0.1229 -0.47052,-0.0801 -0.89188,-0.21688 -1.27354,-0.40786 -0.37412,-0.19339 -0.67746,-0.43498 -0.91881,-0.73006 -0.23797,-0.29762 -0.44883,-0.6865 -0.62794,-1.17142 -0.1717,-0.488 -0.29761,-1.06352 -0.37473,-1.72671 -0.0777,-0.66819 -0.11868,-1.45819 -0.11868,-2.36784 0,-0.90966 0.0422,-1.70261 0.11868,-2.37086 0.0771,-0.66403 0.20303,-1.23649 0.37473,-1.71785 v -0.004 c 0.17893,-0.4898 0.3916,-0.88085 0.62794,-1.17732 l 0.004,-0.004 c 0.24099,-0.2934 0.54342,-0.53016 0.91658,-0.71681 0.38196,-0.19098 0.80314,-0.32713 1.27354,-0.40786 0.48197,-0.0813 1.06099,-0.12471 1.73255,-0.12471 z m 56.74733,0 c 0.81881,0 1.50525,0.0747 2.05355,0.21147 h 0.004 c 0.54704,0.13073 1.00623,0.34159 1.39108,0.62722 h 0.004 c 0.38135,0.27894 0.68132,0.65511 0.91001,1.1516 0.23315,0.50667 0.40967,1.12358 0.52233,1.85153 0.11266,0.72844 0.1717,1.62526 0.1717,2.67932 0,1.0534 -0.0615,1.94781 -0.18013,2.68148 v 0.004 c -0.11266,0.72801 -0.28918,1.34517 -0.52233,1.8516 -0.22894,0.49642 -0.52956,0.87326 -0.91074,1.15232 h -0.004 v 0.004 c -0.38557,0.28677 -0.84892,0.49823 -1.39692,0.63529 -0.54944,0.13134 -1.2313,0.20002 -2.04257,0.20002 -0.67157,0 -1.25053,-0.0422 -1.73256,-0.1217 -0.46811,-0.0801 -0.89103,-0.21568 -1.2713,-0.40546 l -0.006,-0.004 c -0.37292,-0.19279 -0.6715,-0.43498 -0.90555,-0.72783 -0.23858,-0.29822 -0.45064,-0.68741 -0.63017,-1.17365 -0.17171,-0.48799 -0.29762,-1.06352 -0.37473,-1.72671 -0.0777,-0.66819 -0.11869,-1.45825 -0.11869,-2.3679 0,-0.9158 0.0422,-1.70918 0.11869,-2.3708 0.0771,-0.66403 0.20302,-1.23649 0.37473,-1.71785 v -0.004 c 0.17953,-0.491 0.3928,-0.88344 0.63017,-1.18028 0.23435,-0.29339 0.53197,-0.52895 0.90555,-0.71608 0.38196,-0.19098 0.80603,-0.32713 1.27643,-0.40786 0.48197,-0.0813 1.06099,-0.12471 1.73261,-0.12471 z m 178.98851,0 c 1.02303,0 1.84967,0.11146 2.46996,0.31449 0.60945,0.19941 1.09111,0.53619 1.47699,1.03267 v 0.004 h 0.004 c 0.391,0.4898 0.67301,1.13503 0.83586,1.94926 v 0.004 c 0.16989,0.82115 0.26086,1.89943 0.26086,3.22057 0,1.0534 -0.062,1.94781 -0.18074,2.68148 v 0.004 c -0.11266,0.72801 -0.28797,1.34511 -0.52173,1.85153 -0.22893,0.49643 -0.53257,0.87254 -0.91363,1.1516 v 0.004 c -0.38557,0.28677 -0.8482,0.49823 -1.39619,0.63535 -0.55005,0.13134 -1.22848,0.20062 -2.03445,0.20062 -0.67162,0 -1.25052,-0.0422 -1.73255,-0.1229 -0.47052,-0.0801 -0.8926,-0.21688 -1.27432,-0.40786 -0.37412,-0.19339 -0.67746,-0.43498 -0.91875,-0.73006 -0.23797,-0.29762 -0.44823,-0.6865 -0.62722,-1.17142 -0.1717,-0.488 -0.29761,-1.06352 -0.37473,-1.72671 -0.0777,-0.66819 -0.11989,-1.45819 -0.11989,-2.36784 0,-0.90966 0.0422,-1.70261 0.11989,-2.37086 0.0771,-0.66403 0.20303,-1.23649 0.37473,-1.71785 v -0.004 c 0.17893,-0.4898 0.3904,-0.88085 0.62722,-1.17732 l 0.004,-0.004 c 0.24098,-0.2934 0.54282,-0.53016 0.91586,-0.71681 0.38196,-0.19098 0.80386,-0.32713 1.27426,-0.40786 0.48197,-0.0813 1.06093,-0.12471 1.73255,-0.12471 z m 24.98824,0 c 1.02298,0 1.8475,0.11146 2.46773,0.31449 0.60945,0.19941 1.09334,0.53619 1.47922,1.03267 v 0.004 h 0.004 c 0.39099,0.4898 0.67294,1.13503 0.83579,1.94926 v 0.004 c 0.16989,0.82115 0.25785,1.89943 0.25785,3.22057 0,1.0534 -0.0602,1.94781 -0.17773,2.68148 v 0.004 c -0.11266,0.72795 -0.28797,1.34511 -0.52173,1.85153 -0.22893,0.49643 -0.53257,0.87254 -0.91362,1.1516 l -0.004,0.004 c -0.38557,0.28677 -0.84603,0.49823 -1.39397,0.63535 -0.55005,0.13134 -1.22847,0.20062 -2.03444,0.20062 -0.67168,0 -1.25059,-0.0422 -1.73255,-0.1229 -0.46811,-0.0801 -0.89104,-0.21508 -1.27137,-0.40485 l -0.006,-0.004 c -0.37352,-0.19279 -0.67571,-0.43558 -0.91658,-0.73 -0.23797,-0.29761 -0.45124,-0.68656 -0.63017,-1.17148 -0.1717,-0.48799 -0.29761,-1.0637 -0.37473,-1.72671 -0.0777,-0.66818 -0.11627,-1.45825 -0.11627,-2.36784 0,-0.90965 0.0362,-1.70261 0.11627,-2.37079 0.0771,-0.6641 0.20604,-1.23649 0.37774,-1.71792 v -0.004 c 0.17893,-0.4898 0.3904,-0.88086 0.62722,-1.17739 l 0.004,-0.004 c 0.24098,-0.29339 0.54041,-0.52956 0.91363,-0.71608 0.38196,-0.19098 0.80609,-0.32713 1.27649,-0.40786 0.48197,-0.0813 1.06093,-0.12471 1.73255,-0.12471 z m 46.0405,6.39559 v 3.51215 c 0,0.79314 -0.0181,1.59923 -0.0422,2.41194 -1.36294,0.47715 -2.83903,0.75507 -4.48013,0.75507 -0.71355,0 -1.31546,-0.0301 -1.80382,-0.0886 -0.48558,-0.0602 -0.91501,-0.15905 -1.28824,-0.2946 v 0.004 c -0.35304,-0.13013 -0.61149,-0.30123 -0.79687,-0.50546 l -0.004,-0.004 c -0.19339,-0.2193 -0.34401,-0.49101 -0.45245,-0.82477 -0.10242,-0.33978 -0.15785,-0.76886 -0.15785,-1.28824 0,-0.75747 0.10302,-1.35282 0.28256,-1.77665 0,0 0,0 0,-0.004 0.18977,-0.43076 0.44521,-0.73362 0.77488,-0.94159 0.3434,-0.21628 0.83314,-0.39581 1.47108,-0.51871 1.20384,-0.22833 3.48944,-0.37112 6.49547,-0.4392 z"
       id="path4627"
       inkscape:connector-curvature="0"
       inkscape:export-xdpi="96"
       inkscape:export-ydpi="96" />
    <text
       xml:space="preserve"
       style="font-style:normal;font-variant:normal;font-weight:normal;font-stretch:normal;font-size:6.3499999px;line-height:1.25;font-family:Pricedown;-inkscape-font-specification:Pricedown;letter-spacing:0px;word-spacing:0px;fill:#000000;fill-opacity:1;stroke:none;stroke-width:0.26458332"
       x="407.45831"
       y="513.95831"
       id="text4581"><tspan
         sodipodi:role="line"
         id="tspan4579"
         x="407.45831"
         y="519.83209"
         style="stroke-width:0.26458332" /></text>
  </g>
</svg>
